<svg width="4" height="16" viewBox="0 0 4 16" fill="none" xmlns="http://www.w3.org/2000/svg">
<path d="M2.00033 8.83334C2.46056 8.83334 2.83366 8.46024 2.83366 8C2.83366 7.53977 2.46056 7.16667 2.00033 7.16667C1.54009 7.16667 1.16699 7.53977 1.16699 8C1.16699 8.46024 1.54009 8.83334 2.00033 8.83334Z" stroke="#98A2B3" stroke-width="1.66667" stroke-linecap="round" stroke-linejoin="round"/>
<path d="M2.00033 3C2.46056 3 2.83366 2.62691 2.83366 2.16667C2.83366 1.70643 2.46056 1.33334 2.00033 1.33334C1.54009 1.33334 1.16699 1.70643 1.16699 2.16667C1.16699 2.62691 1.54009 3 2.00033 3Z" stroke="#98A2B3" stroke-width="1.66667" stroke-linecap="round" stroke-linejoin="round"/>
<path d="M2.00033 14.6667C2.46056 14.6667 2.83366 14.2936 2.83366 13.8333C2.83366 13.3731 2.46056 13 2.00033 13C1.54009 13 1.16699 13.3731 1.16699 13.8333C1.16699 14.2936 1.54009 14.6667 2.00033 14.6667Z" stroke="#98A2B3" stroke-width="1.66667" stroke-linecap="round" stroke-linejoin="round"/>
</svg>
