<svg width="14" height="14" viewBox="0 0 14 14" fill="none" xmlns="http://www.w3.org/2000/svg">
<path d="M4.40426 12.6875C9.68598 12.6875 12.5757 8.31061 12.5757 4.51612C12.5757 4.39307 12.5729 4.26729 12.5675 4.14424C13.1296 3.73772 13.6147 3.23418 14 2.65729C13.4765 2.89021 12.9206 3.04234 12.3514 3.10846C12.9507 2.74923 13.3995 2.18489 13.6145 1.52006C13.0507 1.85419 12.4341 2.08989 11.7912 2.21705C11.358 1.75677 10.7852 1.45202 10.1615 1.34989C9.53772 1.24777 8.89769 1.35398 8.34035 1.65209C7.783 1.9502 7.33938 2.42361 7.07808 2.99913C6.81677 3.57465 6.75233 4.22022 6.89473 4.83604C5.75312 4.77875 4.6363 4.48219 3.61666 3.96559C2.59702 3.44898 1.69732 2.72387 0.975898 1.83725C0.609233 2.46942 0.497033 3.21749 0.662101 3.92942C0.82717 4.64134 1.25712 5.26371 1.86457 5.67002C1.40853 5.65554 0.962486 5.53276 0.563281 5.31182V5.34737C0.562873 6.01078 0.792224 6.65387 1.21235 7.16731C1.63247 7.68075 2.21744 8.03286 2.86781 8.16377C2.44537 8.27936 2.00199 8.2962 1.57199 8.21299C1.75552 8.78353 2.11258 9.28255 2.59337 9.64039C3.07415 9.99823 3.65465 10.197 4.25387 10.2091C3.23658 11.0082 1.97993 11.4416 0.686328 11.4396C0.456917 11.4392 0.227733 11.4251 0 11.3974C1.31417 12.2406 2.84289 12.6883 4.40426 12.6875Z" fill="#D4DDED"/>
</svg>
