<svg width="14" height="14" viewBox="0 0 14 14" fill="none" xmlns="http://www.w3.org/2000/svg">
<path d="M13.8605 4.20002C13.8605 4.20002 13.7238 3.23478 13.3027 2.81096C12.7695 2.25314 12.1734 2.25041 11.9 2.2176C9.94219 2.07541 7.00273 2.07541 7.00273 2.07541H6.99726C6.99726 2.07541 4.05781 2.07541 2.1 2.2176C1.82656 2.25041 1.23047 2.25314 0.697266 2.81096C0.276172 3.23478 0.142187 4.20002 0.142187 4.20002C0.142187 4.20002 0 5.33478 0 6.46681V7.52775C0 8.65978 0.139453 9.79455 0.139453 9.79455C0.139453 9.79455 0.276172 10.7598 0.694531 11.1836C1.22773 11.7414 1.92773 11.7223 2.23945 11.7824C3.36055 11.8891 7 11.9219 7 11.9219C7 11.9219 9.94219 11.9164 11.9 11.777C12.1734 11.7442 12.7695 11.7414 13.3027 11.1836C13.7238 10.7598 13.8605 9.79455 13.8605 9.79455C13.8605 9.79455 14 8.66252 14 7.52775V6.46681C14 5.33478 13.8605 4.20002 13.8605 4.20002ZM5.55352 8.81564V4.88088L9.33516 6.8551L5.55352 8.81564Z" fill="#D4DDED"/>
</svg>
